<svg width="170" height="157" viewBox="0 0 170 157" fill="none" xmlns="http://www.w3.org/2000/svg">
<path d="M30.7401 143.184L39.029 137.329L40.4472 138.447L37.4932 145.496L43.7565 141.056L45.1724 142.155L41.3055 151.514L39.9752 150.465L43.298 142.994L36.677 147.865L35.2697 146.756L38.5555 139.309L32.0814 144.242L30.7401 143.184Z" fill="#293432"/>
<path d="M25.0141 134.823L27.2461 133.041L25.1498 130.415L26.1673 129.603L28.2636 132.229L30.5941 130.368L28.2358 127.414L29.2533 126.602L32.6073 130.803L24.9922 136.883L21.6382 132.681L22.6558 131.869L25.0141 134.823Z" fill="#293432"/>
<path d="M12.0988 107.961C11.724 108.36 11.496 108.81 11.415 109.313C11.3251 109.819 11.3773 110.35 11.5716 110.905C11.7843 111.513 12.1105 112.007 12.5501 112.387C12.9896 112.767 13.5083 113.006 14.106 113.103C14.7006 113.192 15.3283 113.12 15.989 112.889C16.6497 112.658 17.1893 112.321 17.6077 111.877C18.0143 111.429 18.2708 110.919 18.3774 110.347C18.484 109.776 18.431 109.186 18.2182 108.579C17.9315 107.759 17.4696 107.174 16.8327 106.824C16.1958 106.473 15.4653 106.378 14.6412 106.538L15.8483 109.986L14.6458 110.407L12.8745 105.346L14.0505 104.935C14.798 104.782 15.5437 104.808 16.2877 105.012C17.0285 105.208 17.6952 105.573 18.2876 106.107C18.8681 106.635 19.2987 107.301 19.5793 108.102C19.8814 108.966 19.9592 109.823 19.8125 110.676C19.657 111.531 19.2965 112.295 18.7309 112.968C18.1623 113.631 17.4287 114.121 16.5301 114.435C15.6316 114.749 14.753 114.825 13.8946 114.66C13.033 114.487 12.2792 114.113 11.633 113.538C10.9749 112.958 10.4964 112.24 10.1973 111.386C9.85506 110.408 9.79362 109.455 10.013 108.528C10.2204 107.595 10.7045 106.803 11.4652 106.151L12.0988 107.961Z" fill="#293432"/>
<path d="M6.7456 96.9536L16.3553 95.4284L16.6055 97.0047L6.99577 98.5298L6.7456 96.9536Z" fill="#293432"/>
<path d="M5.94217 79.5846L15.6174 83.3812L15.5902 85.229L5.80734 88.7536L5.83245 87.0458L13.966 84.281L5.91747 81.2644L5.94217 79.5846Z" fill="#293432"/>
<path d="M8.66785 69.8564L11.4578 70.4671L12.1763 67.1848L13.4481 67.4632L12.7297 70.7455L15.6427 71.3832L16.451 67.6906L17.7229 67.969L16.5733 73.2207L7.05469 71.1371L8.20423 65.8855L9.47611 66.1639L8.66785 69.8564Z" fill="#293432"/>
<path d="M18.985 41.3821L22.6598 47.3259L25.6891 49.1343L24.871 50.5046L21.8417 48.6963L14.8588 48.2941L15.7701 46.7675L21.0246 47.2791L18.0808 42.8967L18.985 41.3821Z" fill="#293432"/>
<path d="M34.4463 37.7685C33.827 38.4289 33.1024 38.8945 32.2726 39.1655C31.4422 39.4232 30.5981 39.4569 29.7402 39.2666C28.8819 39.063 28.1055 38.6356 27.4111 37.9844C26.7167 37.3332 26.2438 36.589 25.9924 35.7519C25.7474 34.908 25.7303 34.0666 25.9411 33.2279C26.1515 32.3759 26.5663 31.6198 27.1856 30.9594C27.8113 30.2922 28.5393 29.8297 29.3696 29.572C30.1995 29.301 31.0402 29.2641 31.8917 29.4613C32.7432 29.6585 33.5162 30.0827 34.2106 30.7339C34.905 31.3851 35.3813 32.1325 35.6395 32.976C35.8909 33.8131 35.9114 34.6576 35.701 35.5096C35.4903 36.3483 35.072 37.1013 34.4463 37.7685ZM33.4354 36.8204C33.8759 36.3506 34.163 35.833 34.2967 35.2674C34.4236 34.6955 34.3854 34.1222 34.1821 33.5477C33.9783 32.96 33.6144 32.4203 33.0901 31.9287C32.5659 31.4371 32.0074 31.1116 31.4146 30.9524C30.8282 30.7863 30.2571 30.7882 29.7013 30.9579C29.1455 31.1276 28.6473 31.4473 28.2068 31.9171C27.7663 32.3868 27.4791 32.9045 27.3454 33.47C27.2117 34.0356 27.2433 34.609 27.4403 35.1904C27.6436 35.7649 28.0074 36.298 28.5316 36.7896C29.0558 37.2812 29.6145 37.6132 30.2077 37.7857C30.8005 37.9449 31.3782 37.9429 31.9408 37.7796C32.4966 37.6099 32.9948 37.2901 33.4354 36.8204Z" fill="#293432"/>
<path d="M38.6837 20.9671L42.1609 26.1026C42.5743 26.7131 43.0441 27.0657 43.5703 27.1603C44.1042 27.2497 44.6571 27.1007 45.229 26.7135C45.8086 26.321 46.1522 25.8629 46.2598 25.3393C46.375 24.8103 46.226 24.2406 45.8126 23.6301L42.3353 18.4945L43.6569 17.5997L47.1184 22.7121C47.5632 23.369 47.797 24.0222 47.8198 24.6718C47.8426 25.3214 47.6903 25.9205 47.3629 26.4691C47.0355 27.0176 46.582 27.4881 46.0023 27.8806C45.4227 28.2731 44.8174 28.5194 44.1865 28.6198C43.5633 28.7148 42.9582 28.6286 42.3713 28.361C41.7843 28.0934 41.2684 27.6311 40.8236 26.9742L37.3621 21.8619L38.6837 20.9671Z" fill="#293432"/>
<path d="M67.4871 7.92313L67.8286 9.17957L65.3292 9.85872L67.5392 17.9918L65.999 18.4103L63.789 10.2772L61.2762 10.9601L60.9347 9.70362L67.4871 7.92313Z" fill="#293432"/>
<path d="M83.7314 5.94647L84.3589 15.6562L82.7662 15.7591L82.4917 11.512L77.9233 11.8073L78.1977 16.0544L76.6051 16.1573L75.9775 6.44758L77.5702 6.34465L77.8393 10.508L82.4078 10.2127L82.1387 6.0494L83.7314 5.94647Z" fill="#293432"/>
<path d="M94.2594 7.85374L93.8715 10.6833L97.2004 11.1396L97.0235 12.4296L93.6946 11.9732L93.2896 14.9276L97.0346 15.441L96.8577 16.7309L91.5316 16.0007L92.8551 6.34702L98.1812 7.07723L98.0044 8.36716L94.2594 7.85374Z" fill="#293432"/>
<path d="M119.57 19.24C119.997 19.5552 120.273 19.9985 120.397 20.5697C120.52 21.141 120.454 21.686 120.198 22.2048C119.978 22.6483 119.663 22.992 119.251 23.2361C118.851 23.4759 118.382 23.5929 117.844 23.587C117.309 23.5729 116.754 23.4231 116.176 23.1378L112.687 21.4137L116.997 12.6905L120.323 14.334C120.917 14.6276 121.378 14.9802 121.706 15.3919C122.033 15.8036 122.221 16.2347 122.269 16.6853C122.321 17.1275 122.244 17.5578 122.037 17.9762C121.789 18.4782 121.449 18.8304 121.015 19.0328C120.582 19.2352 120.1 19.3043 119.57 19.24ZM116.617 17.0625L118.387 17.937C118.855 18.1686 119.271 18.2438 119.634 18.1628C120.009 18.0776 120.296 17.8341 120.494 17.4325C120.689 17.0392 120.706 16.6676 120.546 16.3178C120.398 15.9637 120.09 15.6708 119.621 15.4393L117.851 14.5648L116.617 17.0625ZM116.627 21.9085C117.113 22.1484 117.551 22.2193 117.943 22.1215C118.335 22.0236 118.634 21.7655 118.841 21.3471C119.052 20.9204 119.073 20.5092 118.904 20.1134C118.735 19.7177 118.408 19.3999 117.923 19.1601L116.04 18.2298L114.695 20.9534L116.627 21.9085Z" fill="#293432"/>
<path d="M131.231 22.493L129.497 24.7622L132.167 26.8025L131.376 27.8369L128.707 25.7967L126.896 28.166L129.899 30.4613L129.109 31.4958L124.837 28.2314L130.754 20.4894L135.025 23.7538L134.235 24.7883L131.231 22.493Z" fill="#293432"/>
<path d="M136.772 39.0469C136.339 38.5577 136.033 38.0432 135.854 37.5033C135.682 36.9573 135.655 36.4333 135.771 35.9313C135.888 35.4293 136.156 34.9927 136.575 34.6215L137.707 35.9003C137.417 36.2067 137.267 36.5579 137.256 36.9539C137.251 37.357 137.425 37.7576 137.778 38.156C138.143 38.5683 138.525 38.8031 138.925 38.8605C139.332 38.9117 139.693 38.7981 140.007 38.5197C140.252 38.3032 140.386 38.0535 140.41 37.7706C140.44 37.4948 140.401 37.2114 140.293 36.9205C140.191 36.6366 140.022 36.2627 139.786 35.7987C139.491 35.2121 139.274 34.7129 139.133 34.3011C139.006 33.89 138.986 33.459 139.073 33.0081C139.16 32.5572 139.431 32.1306 139.885 31.7285C140.304 31.3573 140.764 31.1373 141.264 31.0686C141.764 30.9998 142.265 31.0799 142.767 31.3088C143.269 31.5377 143.739 31.9002 144.178 32.3964C144.803 33.1022 145.135 33.8365 145.175 34.5993C145.228 35.3628 144.968 36.0413 144.397 36.6346L143.227 35.3138C143.474 35.0578 143.59 34.7309 143.575 34.3333C143.559 33.9356 143.384 33.5481 143.05 33.1707C142.747 32.8283 142.412 32.6261 142.046 32.5641C141.679 32.5022 141.332 32.6166 141.003 32.9073C140.78 33.1053 140.653 33.3357 140.624 33.5984C140.608 33.8619 140.651 34.1355 140.753 34.4194C140.854 34.7033 141.017 35.0703 141.241 35.5203C141.535 36.12 141.749 36.6289 141.882 37.047C142.021 37.472 142.044 37.9131 141.95 38.3702C141.87 38.8281 141.599 39.2612 141.137 39.6695C140.767 39.9974 140.328 40.2054 139.82 40.2935C139.318 40.3886 138.796 40.3337 138.253 40.1288C137.723 39.9246 137.23 39.564 136.772 39.0469Z" fill="#293432"/>
<path d="M154.97 47.9755L153.847 48.6349L152.535 46.4015L145.268 50.6695L144.46 49.2933L151.727 45.0253L150.408 42.7799L151.531 42.1206L154.97 47.9755Z" fill="#293432"/>
<path d="M152.803 70.6071C152.668 69.9679 152.656 69.3695 152.767 68.8118C152.887 68.2522 153.122 67.7828 153.471 67.4037C153.82 67.0247 154.269 66.7772 154.816 66.6614L155.17 68.3325C154.767 68.4559 154.462 68.6871 154.257 69.0262C154.054 69.3743 154.008 69.8087 154.118 70.3292C154.232 70.8679 154.448 71.261 154.768 71.5083C155.096 71.7536 155.466 71.8329 155.877 71.746C156.197 71.6785 156.437 71.5276 156.597 71.2933C156.759 71.0682 156.865 70.8026 156.915 70.4963C156.967 70.1992 157.004 69.7906 157.028 69.2705C157.061 68.6148 157.118 68.0732 157.2 67.6458C157.292 67.2256 157.487 66.8409 157.786 66.4917C158.084 66.1425 158.53 65.9051 159.123 65.7796C159.671 65.6638 160.179 65.6995 160.648 65.8865C161.117 66.0736 161.513 66.3906 161.837 66.8373C162.16 67.2841 162.39 67.8317 162.527 68.48C162.722 69.4023 162.649 70.2049 162.306 70.8877C161.975 71.5778 161.415 72.0397 160.625 72.2735L160.26 70.5476C160.601 70.4469 160.863 70.2198 161.046 69.8663C161.229 69.5129 161.268 69.0896 161.164 68.5965C161.069 68.1491 160.878 67.8079 160.59 67.5731C160.302 67.3383 159.943 67.2662 159.514 67.357C159.222 67.4187 158.998 67.5566 158.843 67.7707C158.699 67.9919 158.601 68.2511 158.549 68.5482C158.498 68.8453 158.458 69.2448 158.431 69.7466C158.39 70.4134 158.325 70.9614 158.234 71.3908C158.146 71.8292 157.948 72.224 157.641 72.5752C157.344 72.9336 156.895 73.1764 156.292 73.3038C155.808 73.4061 155.324 73.3702 154.838 73.1962C154.355 73.0312 153.928 72.7256 153.557 72.2793C153.197 71.8403 152.946 71.2829 152.803 70.6071Z" fill="#293432"/>
<path d="M162.864 82.6852L160.008 82.7272L160.058 86.0868L158.756 86.1059L158.706 82.7463L155.725 82.7902L155.78 86.5697L154.478 86.5889L154.399 81.2135L164.142 81.0702L164.221 86.4456L162.92 86.4648L162.864 82.6852Z" fill="#293432"/>
<path d="M153.057 99.1173L157.285 97.6056L157.502 96.4071L153.672 95.7145L153.956 94.1439L163.531 95.8755L162.933 99.1818C162.8 99.9166 162.559 100.513 162.211 100.972C161.861 101.44 161.447 101.759 160.971 101.929C160.493 102.108 159.987 102.149 159.454 102.053C158.83 101.94 158.294 101.653 157.846 101.193C157.405 100.743 157.162 100.125 157.114 99.3388L152.718 100.991L153.057 99.1173ZM158.756 96.6338L158.442 98.3696C158.335 98.9574 158.403 99.4249 158.643 99.7719C158.882 100.128 159.25 100.351 159.746 100.441C160.242 100.53 160.654 100.453 160.983 100.209C161.321 99.9668 161.544 99.5471 161.652 98.9501L161.966 97.2143L158.756 96.6338Z" fill="#293432"/>
<path d="M156.657 119.157L149.024 112.102L149.722 110.39L160.116 110.665L159.472 112.246L150.89 111.864L157.291 117.601L156.657 119.157Z" fill="#293432"/>
<path d="M151.79 127.709L143.541 122.549L144.388 121.196L152.637 126.356L151.79 127.709Z" fill="#293432"/>
<path d="M143.342 131.51C144.046 132.151 144.53 132.888 144.794 133.721C145.052 134.561 145.082 135.402 144.884 136.244C144.686 137.099 144.283 137.861 143.673 138.531C142.976 139.297 142.168 139.805 141.248 140.053C140.329 140.314 139.401 140.265 138.466 139.907L139.757 138.488C140.306 138.647 140.825 138.646 141.313 138.484C141.8 138.322 142.242 138.024 142.638 137.589C143.071 137.113 143.351 136.591 143.476 136.023C143.601 135.456 143.561 134.883 143.355 134.304C143.143 133.733 142.771 133.205 142.24 132.722C141.708 132.238 141.148 131.918 140.559 131.76C139.964 131.61 139.387 131.621 138.826 131.793C138.273 131.971 137.78 132.298 137.347 132.774C136.951 133.209 136.695 133.677 136.58 134.178C136.465 134.679 136.513 135.195 136.723 135.727L135.432 137.146C134.987 136.249 134.851 135.33 135.024 134.39C135.192 133.457 135.624 132.608 136.321 131.842C136.937 131.165 137.654 130.688 138.474 130.412C139.3 130.142 140.144 130.095 141.004 130.273C141.859 130.457 142.638 130.87 143.342 131.51Z" fill="#293432"/>
<path d="M131.658 147.559L129.987 145.242L127.262 147.207L126.5 146.151L129.226 144.186L127.482 141.767L124.416 143.977L123.655 142.921L128.016 139.777L133.714 147.682L129.353 150.825L128.591 149.769L131.658 147.559Z" fill="#293432"/>
</svg>
