<svg width="11" height="764" viewBox="0 0 11 764" fill="none" xmlns="http://www.w3.org/2000/svg">
<path d="M0.297709 749.655L10.0277 752.539L10.0277 754.345L2.66371 756.389L10.0277 758.559L10.0417 760.351L0.297709 763.109L0.297709 761.415L8.22171 759.399L0.297709 757.215L0.297709 755.423L8.17971 753.393L0.297709 751.363L0.297709 749.655ZM1.58571 736.943L4.44171 736.943L4.44171 733.583L5.74371 733.583L5.74371 736.943L8.72571 736.943L8.72571 733.163L10.0277 733.163L10.0277 738.539L0.283708 738.539L0.283708 733.163L1.58571 733.163L1.58571 736.943ZM0.297707 704.782C0.297707 703.746 0.498373 702.841 0.899707 702.066C1.29171 701.282 1.86104 700.68 2.60771 700.26C3.34504 699.831 4.20837 699.616 5.19771 699.616C6.18704 699.616 7.04571 699.831 7.77371 700.26C8.50171 700.68 9.06171 701.282 9.45371 702.066C9.83637 702.841 10.0277 703.746 10.0277 704.782L10.0277 707.96L0.297707 707.96L0.297707 704.782ZM8.72571 704.782C8.72571 703.644 8.41771 702.771 7.80171 702.164C7.18571 701.558 6.31771 701.254 5.19771 701.254C4.06837 701.254 3.18637 701.558 2.55171 702.164C1.91704 702.771 1.59971 703.644 1.59971 704.782L1.59971 706.364L8.72571 706.364L8.72571 704.782ZM1.58571 686.638L4.44171 686.638L4.44171 683.278L5.74371 683.278L5.74371 686.638L8.72571 686.638L8.72571 682.858L10.0277 682.858L10.0277 688.234L0.283706 688.234L0.283706 682.858L1.58571 682.858L1.58571 686.638ZM8.73971 669.497L8.73971 666.207L10.0277 666.207L10.0277 671.093L0.297705 671.093L0.297705 669.497L8.73971 669.497ZM0.297704 653.476L10.0277 653.476L10.0277 655.072L0.297704 655.072L0.297704 653.476ZM0.297704 633.195L10.0277 636.849L10.0277 638.697L0.297704 642.365L0.297704 640.657L8.3897 637.773L0.297704 634.875L0.297704 633.195ZM1.5857 620.464L4.4417 620.464L4.4417 617.104L5.7437 617.104L5.7437 620.464L8.7257 620.464L8.7257 616.684L10.0277 616.684L10.0277 622.06L0.283703 622.06L0.283703 616.684L1.5857 616.684L1.5857 620.464ZM10.0277 599.864L6.1357 602.104L6.1357 603.322L10.0277 603.322L10.0277 604.918L0.297702 604.918L0.297702 601.558C0.297702 600.811 0.428369 600.181 0.689702 599.668C0.951035 599.145 1.30104 598.758 1.7397 598.506C2.17837 598.245 2.66837 598.114 3.2097 598.114C3.84437 598.114 4.42304 598.301 4.9457 598.674C5.45904 599.038 5.80904 599.603 5.9957 600.368L10.0277 597.96L10.0277 599.864ZM4.8617 603.322L4.8617 601.558C4.8617 600.961 4.71237 600.513 4.4137 600.214C4.11504 599.906 3.7137 599.752 3.2097 599.752C2.7057 599.752 2.3137 599.901 2.0337 600.2C1.74437 600.499 1.5997 600.951 1.5997 601.558L1.5997 603.322L4.8617 603.322ZM10.1257 568.398C10.1257 569.303 9.9157 570.138 9.4957 570.904C9.06637 571.66 8.4737 572.262 7.7177 572.71C6.95237 573.148 6.0937 573.368 5.1417 573.368C4.1897 573.368 3.3357 573.148 2.5797 572.71C1.8237 572.262 1.2357 571.66 0.815701 570.904C0.386367 570.138 0.171701 569.303 0.171701 568.398C0.171701 567.483 0.386367 566.648 0.815701 565.892C1.2357 565.126 1.8237 564.524 2.5797 564.086C3.3357 563.647 4.1897 563.428 5.1417 563.428C6.0937 563.428 6.95237 563.647 7.7177 564.086C8.4737 564.524 9.06637 565.126 9.4957 565.892C9.9157 566.648 10.1257 567.483 10.1257 568.398ZM8.7397 568.398C8.7397 567.754 8.59503 567.18 8.3057 566.676C8.00703 566.172 7.58703 565.78 7.0457 565.5C6.49503 565.21 5.86037 565.066 5.1417 565.066C4.42303 565.066 3.79303 565.21 3.2517 565.5C2.71037 565.78 2.29503 566.172 2.0057 566.676C1.71637 567.18 1.5717 567.754 1.5717 568.398C1.5717 569.042 1.71637 569.616 2.0057 570.12C2.29503 570.624 2.71037 571.02 3.2517 571.31C3.79303 571.59 4.42303 571.73 5.1417 571.73C5.86037 571.73 6.49503 571.59 7.0457 571.31C7.58703 571.02 8.00703 570.624 8.3057 570.12C8.59503 569.616 8.7397 569.042 8.7397 568.398ZM10.0277 544.063L10.0277 545.659L2.7617 550.461L10.0277 550.461L10.0277 552.057L0.2837 552.057L0.2837 550.461L7.5357 545.659L0.2837 545.659L0.2837 544.063L10.0277 544.063ZM8.7397 530.571L8.7397 527.281L10.0277 527.281L10.0277 532.167L0.297699 532.167L0.297699 530.571L8.7397 530.571ZM0.297698 508.937L6.4997 512.157L10.0277 512.157L10.0277 513.753L6.4997 513.753L0.297698 516.987L0.297698 515.209L5.0717 512.955L0.297698 510.701L0.297698 508.937ZM0.297697 478.147L1.5997 478.147L1.5997 480.737L10.0277 480.737L10.0277 482.333L1.5997 482.333L1.5997 484.937L0.297697 484.937L0.297697 478.147ZM0.297696 458.961L10.0277 458.961L10.0277 460.557L5.7717 460.557L5.7717 465.135L10.0277 465.135L10.0277 466.731L0.297696 466.731L0.297696 465.135L4.4697 465.135L4.4697 460.557L0.297696 460.557L0.297696 458.961ZM1.5857 445.464L4.4417 445.464L4.4417 442.104L5.7437 442.104L5.7437 445.464L8.7257 445.464L8.7257 441.684L10.0277 441.684L10.0277 447.06L0.283696 447.06L0.283695 441.684L1.5857 441.684L1.5857 445.464ZM5.02969 411.273C5.12303 410.751 5.39836 410.307 5.85569 409.943C6.31303 409.579 6.83103 409.397 7.40969 409.397C7.90436 409.397 8.35236 409.528 8.75369 409.789C9.14569 410.041 9.45836 410.41 9.69169 410.895C9.91569 411.381 10.0277 411.945 10.0277 412.589L10.0277 416.481L0.297694 416.481L0.297694 412.771C0.297694 412.109 0.409694 411.539 0.633695 411.063C0.857694 410.587 1.16103 410.228 1.54369 409.985C1.91703 409.743 2.33703 409.621 2.80369 409.621C3.36369 409.621 3.83036 409.771 4.20369 410.069C4.57703 410.368 4.85236 410.769 5.02969 411.273ZM4.38569 414.885L4.38569 412.911C4.38569 412.389 4.26903 411.983 4.03569 411.693C3.79303 411.395 3.44769 411.245 2.99969 411.245C2.56103 411.245 2.22036 411.395 1.97769 411.693C1.72569 411.983 1.59969 412.389 1.59969 412.911L1.59969 414.885L4.38569 414.885ZM8.72569 412.729C8.72569 412.188 8.59503 411.763 8.33369 411.455C8.07236 411.147 7.70836 410.993 7.24169 410.993C6.76569 410.993 6.38769 411.157 6.10769 411.483C5.82769 411.81 5.68769 412.244 5.68769 412.785L5.68769 414.885L8.72569 414.885L8.72569 412.729ZM1.58569 396.267L4.44169 396.267L4.44169 392.907L5.74369 392.907L5.74369 396.267L8.72569 396.267L8.72569 392.487L10.0277 392.487L10.0277 397.863L0.283693 397.863L0.283693 392.487L1.58569 392.487L1.58569 396.267ZM10.1257 377.515C10.1257 378.169 10.0137 378.757 9.78969 379.279C9.55636 379.802 9.22969 380.213 8.80969 380.511C8.38969 380.81 7.89969 380.959 7.33969 380.959L7.33969 379.251C7.75969 379.214 8.10503 379.051 8.37569 378.761C8.64636 378.463 8.78169 378.047 8.78169 377.515C8.78169 376.965 8.65103 376.535 8.38969 376.227C8.11903 375.919 7.77369 375.765 7.35369 375.765C7.02703 375.765 6.76103 375.863 6.55569 376.059C6.35036 376.246 6.19169 376.484 6.07969 376.773C5.96769 377.053 5.84636 377.445 5.71569 377.949C5.54769 378.584 5.37969 379.102 5.21169 379.503C5.03436 379.895 4.76369 380.231 4.39969 380.511C4.03569 380.791 3.55036 380.931 2.94369 380.931C2.38369 380.931 1.89369 380.791 1.47369 380.511C1.05369 380.231 0.731693 379.839 0.507693 379.335C0.283693 378.831 0.171692 378.248 0.171692 377.585C0.171692 376.643 0.409692 375.873 0.885692 375.275C1.35236 374.669 1.99636 374.333 2.81769 374.267L2.81769 376.031C2.46303 376.059 2.15969 376.227 1.90769 376.535C1.65569 376.843 1.52969 377.249 1.52969 377.753C1.52969 378.211 1.64636 378.584 1.87969 378.873C2.11303 379.163 2.44903 379.307 2.88769 379.307C3.18636 379.307 3.43369 379.219 3.62969 379.041C3.81636 378.855 3.96569 378.621 4.07769 378.341C4.18969 378.061 4.31103 377.679 4.44169 377.193C4.61903 376.549 4.79636 376.027 4.97369 375.625C5.15103 375.215 5.42636 374.869 5.79969 374.589C6.16369 374.3 6.65369 374.155 7.26969 374.155C7.76436 374.155 8.23103 374.291 8.66969 374.561C9.10836 374.823 9.46303 375.21 9.73369 375.723C9.99503 376.227 10.1257 376.825 10.1257 377.515ZM0.297691 356.186L1.59969 356.186L1.59969 358.776L10.0277 358.776L10.0277 360.372L1.59969 360.372L1.59969 362.976L0.297692 362.976L0.297691 356.186ZM8.03969 325.467L8.03969 329.541L10.0277 330.241L10.0277 331.907L0.28369 328.421L0.28369 326.573L10.0277 323.087L10.0277 324.767L8.03969 325.467ZM6.73769 325.915L2.21569 327.497L6.73769 329.093L6.73769 325.915ZM10.0277 303.777L10.0277 305.373L2.76169 310.175L10.0277 310.175L10.0277 311.771L0.28369 311.771L0.28369 310.175L7.53569 305.373L0.283689 305.373L0.283689 303.777L10.0277 303.777ZM0.297688 288.703C0.297688 287.667 0.498355 286.762 0.899689 285.987C1.29169 285.203 1.86102 284.601 2.60769 284.181C3.34502 283.752 4.20836 283.537 5.19769 283.537C6.18702 283.537 7.04569 283.752 7.77369 284.181C8.50169 284.601 9.06169 285.203 9.45369 285.987C9.83636 286.762 10.0277 287.667 10.0277 288.703L10.0277 291.881L0.297689 291.881L0.297688 288.703ZM8.72569 288.703C8.72569 287.565 8.41769 286.692 7.80169 286.085C7.18569 285.479 6.31769 285.175 5.19769 285.175C4.06836 285.175 3.18636 285.479 2.55169 286.085C1.91702 286.692 1.59969 287.565 1.59969 288.703L1.59969 290.285L8.72569 290.285L8.72569 288.703ZM10.1257 254.281C10.1257 255.186 9.91569 256.022 9.49569 256.787C9.06635 257.543 8.47369 258.145 7.71769 258.593C6.95235 259.032 6.09369 259.251 5.14169 259.251C4.18969 259.251 3.33569 259.032 2.57969 258.593C1.82369 258.145 1.23569 257.543 0.815687 256.787C0.386354 256.022 0.171687 255.186 0.171687 254.281C0.171687 253.366 0.386354 252.531 0.815687 251.775C1.23569 251.01 1.82369 250.408 2.57969 249.969C3.33569 249.53 4.18969 249.311 5.14169 249.311C6.09369 249.311 6.95235 249.53 7.71769 249.969C8.47369 250.408 9.06635 251.01 9.49569 251.775C9.91569 252.531 10.1257 253.366 10.1257 254.281ZM8.73969 254.281C8.73969 253.637 8.59502 253.063 8.30569 252.559C8.00702 252.055 7.58702 251.663 7.04569 251.383C6.49502 251.094 5.86035 250.949 5.14169 250.949C4.42302 250.949 3.79302 251.094 3.25169 251.383C2.71035 251.663 2.29502 252.055 2.00569 252.559C1.71635 253.063 1.57169 253.637 1.57169 254.281C1.57169 254.925 1.71635 255.499 2.00569 256.003C2.29502 256.507 2.71035 256.904 3.25169 257.193C3.79302 257.473 4.42302 257.613 5.14169 257.613C5.86035 257.613 6.49502 257.473 7.04569 257.193C7.58702 256.904 8.00702 256.507 8.30569 256.003C8.59502 255.499 8.73969 254.925 8.73969 254.281ZM0.297686 236.358L6.49969 236.358C7.23702 236.358 7.79235 236.167 8.16569 235.784C8.53902 235.392 8.72569 234.851 8.72569 234.16C8.72569 233.46 8.53902 232.919 8.16569 232.536C7.79235 232.144 7.23702 231.948 6.49969 231.948L0.297686 231.948L0.297686 230.352L6.47169 230.352C7.26502 230.352 7.93702 230.525 8.48769 230.87C9.03835 231.216 9.44902 231.678 9.71969 232.256C9.99035 232.835 10.1257 233.474 10.1257 234.174C10.1257 234.874 9.99035 235.514 9.71969 236.092C9.44902 236.662 9.03835 237.114 8.48769 237.45C7.93702 237.786 7.26502 237.954 6.47169 237.954L0.297686 237.954L0.297686 236.358ZM10.0277 213.42L6.13569 215.66L6.13569 216.878L10.0277 216.878L10.0277 218.474L0.297685 218.474L0.297685 215.114C0.297685 214.368 0.428352 213.738 0.689685 213.224C0.951018 212.702 1.30102 212.314 1.73969 212.062C2.17835 211.801 2.66835 211.67 3.20969 211.67C3.84435 211.67 4.42302 211.857 4.94569 212.23C5.45902 212.594 5.80902 213.159 5.99569 213.924L10.0277 211.516L10.0277 213.42ZM4.86169 216.878L4.86169 215.114C4.86169 214.517 4.71235 214.069 4.41369 213.77C4.11502 213.462 3.71369 213.308 3.20969 213.308C2.70569 213.308 2.31369 213.458 2.03369 213.756C1.74435 214.055 1.59969 214.508 1.59969 215.114L1.59969 216.878L4.86169 216.878ZM5.14168 186.924C4.18968 186.924 3.33568 186.705 2.57968 186.266C1.82368 185.818 1.23568 185.216 0.815684 184.46C0.386351 183.695 0.171684 182.859 0.171684 181.954C0.171684 180.918 0.42835 179.999 0.941684 179.196C1.44568 178.384 2.16435 177.796 3.09768 177.432L3.09768 179.35C2.58435 179.602 2.20168 179.952 1.94968 180.4C1.69768 180.848 1.57168 181.366 1.57168 181.954C1.57168 182.598 1.71635 183.172 2.00568 183.676C2.29502 184.18 2.71035 184.577 3.25168 184.866C3.79302 185.146 4.42302 185.286 5.14168 185.286C5.86035 185.286 6.49035 185.146 7.03168 184.866C7.57302 184.577 7.99302 184.18 8.29168 183.676C8.58102 183.172 8.72568 182.598 8.72568 181.954C8.72568 181.366 8.59968 180.848 8.34768 180.4C8.09568 179.952 7.71302 179.602 7.19968 179.35L7.19968 177.432C8.13302 177.796 8.85168 178.384 9.35568 179.196C9.85968 179.999 10.1117 180.918 10.1117 181.954C10.1117 182.869 9.90168 183.704 9.48168 184.46C9.05235 185.216 8.45968 185.818 7.70368 186.266C6.94768 186.705 6.09368 186.924 5.14168 186.924ZM0.297683 164.182L6.49968 164.182C7.23702 164.182 7.79235 163.99 8.16568 163.608C8.53902 163.216 8.72568 162.674 8.72568 161.984C8.72568 161.284 8.53902 160.742 8.16568 160.36C7.79235 159.968 7.23702 159.772 6.49968 159.772L0.297683 159.772L0.297683 158.176L6.47168 158.176C7.26502 158.176 7.93702 158.348 8.48768 158.694C9.03835 159.039 9.44902 159.501 9.71968 160.08C9.99035 160.658 10.1257 161.298 10.1257 161.998C10.1257 162.698 9.99035 163.337 9.71968 163.916C9.44902 164.485 9.03835 164.938 8.48768 165.274C7.93702 165.61 7.26502 165.778 6.47168 165.778L0.297683 165.778L0.297683 164.182ZM10.1257 143.092C10.1257 143.745 10.0137 144.333 9.78968 144.856C9.55635 145.378 9.22968 145.789 8.80968 146.088C8.38968 146.386 7.89968 146.536 7.33968 146.536L7.33968 144.828C7.75968 144.79 8.10502 144.627 8.37568 144.338C8.64635 144.039 8.78168 143.624 8.78168 143.092C8.78168 142.541 8.65102 142.112 8.38968 141.804C8.11902 141.496 7.77368 141.342 7.35368 141.342C7.02702 141.342 6.76102 141.44 6.55568 141.636C6.35035 141.822 6.19168 142.06 6.07968 142.35C5.96768 142.63 5.84635 143.022 5.71568 143.526C5.54768 144.16 5.37968 144.678 5.21168 145.08C5.03435 145.472 4.76368 145.808 4.39968 146.088C4.03568 146.368 3.55035 146.508 2.94368 146.508C2.38368 146.508 1.89368 146.368 1.47368 146.088C1.05368 145.808 0.731683 145.416 0.507683 144.912C0.283682 144.408 0.171682 143.824 0.171682 143.162C0.171682 142.219 0.409682 141.449 0.885682 140.852C1.35235 140.245 1.99635 139.909 2.81768 139.844L2.81768 141.608C2.46302 141.636 2.15968 141.804 1.90768 142.112C1.65568 142.42 1.52968 142.826 1.52968 143.33C1.52968 143.787 1.64635 144.16 1.87968 144.45C2.11302 144.739 2.44902 144.884 2.88768 144.884C3.18635 144.884 3.43368 144.795 3.62968 144.618C3.81635 144.431 3.96568 144.198 4.07768 143.918C4.18968 143.638 4.31102 143.255 4.44168 142.77C4.61902 142.126 4.79635 141.603 4.97368 141.202C5.15102 140.791 5.42635 140.446 5.79968 140.166C6.16368 139.876 6.65368 139.732 7.26968 139.732C7.76435 139.732 8.23102 139.867 8.66968 140.138C9.10835 140.399 9.46302 140.786 9.73368 141.3C9.99502 141.804 10.1257 142.401 10.1257 143.092ZM0.297681 121.763L1.59968 121.763L1.59968 124.353L10.0277 124.353L10.0277 125.949L1.59968 125.949L1.59968 128.553L0.297681 128.553L0.297681 121.763ZM10.1257 105.908C10.1257 106.814 9.91568 107.649 9.49568 108.414C9.06635 109.17 8.47368 109.772 7.71768 110.22C6.95235 110.659 6.09368 110.878 5.14168 110.878C4.18968 110.878 3.33568 110.659 2.57968 110.22C1.82368 109.772 1.23568 109.17 0.815681 108.414C0.386347 107.649 0.17168 106.814 0.17168 105.908C0.17168 104.994 0.386347 104.158 0.81568 103.402C1.23568 102.637 1.82368 102.035 2.57968 101.596C3.33568 101.158 4.18968 100.938 5.14168 100.938C6.09368 100.938 6.95235 101.158 7.71768 101.596C8.47368 102.035 9.06635 102.637 9.49568 103.402C9.91568 104.158 10.1257 104.994 10.1257 105.908ZM8.73968 105.908C8.73968 105.264 8.59501 104.69 8.30568 104.186C8.00701 103.682 7.58701 103.29 7.04568 103.01C6.49501 102.721 5.86035 102.576 5.14168 102.576C4.42301 102.576 3.79301 102.721 3.25168 103.01C2.71035 103.29 2.29501 103.682 2.00568 104.186C1.71635 104.69 1.57168 105.264 1.57168 105.908C1.57168 106.552 1.71635 107.126 2.00568 107.63C2.29501 108.134 2.71035 108.531 3.25168 108.82C3.79301 109.1 4.42301 109.24 5.14168 109.24C5.86035 109.24 6.49501 109.1 7.04568 108.82C7.58701 108.531 8.00701 108.134 8.30568 107.63C8.59501 107.126 8.73968 106.552 8.73968 105.908ZM0.297679 79.3197L10.0277 79.3197L10.0277 80.9157L3.36368 80.9157L10.0277 83.8837L10.0277 84.9897L3.36368 87.9717L10.0277 87.9717L10.0277 89.5677L0.29768 89.5677L0.29768 87.8457L7.92768 84.4297L0.297679 81.0277L0.297679 79.3197ZM1.58568 65.826L4.44168 65.826L4.44168 62.466L5.74368 62.466L5.74368 65.826L8.72568 65.826L8.72568 62.046L10.0277 62.046L10.0277 67.422L0.283679 67.422L0.283679 62.046L1.58568 62.046L1.58568 65.826ZM10.0277 45.2262L6.13568 47.4662L6.13568 48.6842L10.0277 48.6842L10.0277 50.2802L0.297678 50.2802L0.297678 46.9202C0.297678 46.1735 0.428345 45.5435 0.689678 45.0302C0.951011 44.5075 1.30101 44.1202 1.73968 43.8682C2.17834 43.6069 2.66834 43.4762 3.20968 43.4762C3.84434 43.4762 4.42301 43.6629 4.94568 44.0362C5.45901 44.4002 5.80901 44.9649 5.99568 45.7302L10.0277 43.3222L10.0277 45.2262ZM4.86168 48.6842L4.86168 46.9202C4.86168 46.3229 4.71234 45.8749 4.41368 45.5762C4.11501 45.2682 3.71368 45.1142 3.20968 45.1142C2.70568 45.1142 2.31368 45.2635 2.03368 45.5622C1.74434 45.8609 1.59968 46.3135 1.59968 46.9202L1.59968 48.6842L4.86168 48.6842ZM10.1257 28.4285C10.1257 29.0818 10.0137 29.6698 9.78968 30.1925C9.55634 30.7152 9.22968 31.1258 8.80968 31.4245C8.38968 31.7232 7.89968 31.8725 7.33968 31.8725L7.33968 30.1645C7.75968 30.1272 8.10501 29.9638 8.37568 29.6745C8.64634 29.3758 8.78168 28.9605 8.78168 28.4285C8.78168 27.8778 8.65101 27.4485 8.38968 27.1405C8.11901 26.8325 7.77368 26.6785 7.35368 26.6785C7.02701 26.6785 6.76101 26.7765 6.55568 26.9725C6.35034 27.1592 6.19168 27.3972 6.07968 27.6865C5.96768 27.9665 5.84634 28.3585 5.71568 28.8625C5.54768 29.4972 5.37968 30.0152 5.21168 30.4165C5.03434 30.8085 4.76368 31.1445 4.39968 31.4245C4.03568 31.7045 3.55034 31.8445 2.94368 31.8445C2.38368 31.8445 1.89368 31.7045 1.47368 31.4245C1.05368 31.1445 0.731678 30.7525 0.507678 30.2485C0.283677 29.7445 0.171677 29.1612 0.171677 28.4985C0.171677 27.5558 0.409677 26.7858 0.885677 26.1885C1.35234 25.5818 1.99634 25.2458 2.81768 25.1805L2.81768 26.9445C2.46301 26.9725 2.15968 27.1405 1.90768 27.4485C1.65568 27.7565 1.52968 28.1625 1.52968 28.6665C1.52968 29.1238 1.64634 29.4972 1.87968 29.7865C2.11301 30.0758 2.44901 30.2205 2.88768 30.2205C3.18634 30.2205 3.43368 30.1318 3.62968 29.9545C3.81634 29.7678 3.96568 29.5345 4.07768 29.2545C4.18968 28.9745 4.31101 28.5918 4.44168 28.1065C4.61901 27.4625 4.79634 26.9398 4.97368 26.5385C5.15101 26.1278 5.42634 25.7825 5.79968 25.5025C6.16368 25.2132 6.65368 25.0685 7.26968 25.0685C7.76434 25.0685 8.23101 25.2038 8.66968 25.4745C9.10834 25.7358 9.46301 26.1232 9.73368 26.6365C9.99501 27.1405 10.1257 27.7378 10.1257 28.4285ZM5.14168 0.480535C4.18968 0.480535 3.33568 0.261201 2.57968 -0.177465C1.82368 -0.625465 1.23568 -1.22747 0.815676 -1.98347C0.386342 -2.7488 0.171676 -3.58413 0.171676 -4.48947C0.171676 -5.52547 0.428342 -6.4448 0.941676 -7.24747C1.44568 -8.05947 2.16434 -8.64747 3.09768 -9.01147L3.09768 -7.09347C2.58434 -6.84147 2.20168 -6.49147 1.94968 -6.04347C1.69768 -5.59547 1.57168 -5.07747 1.57168 -4.48947C1.57168 -3.84547 1.71634 -3.27147 2.00568 -2.76747C2.29501 -2.26347 2.71034 -1.8668 3.25168 -1.57747C3.79301 -1.29747 4.42301 -1.15747 5.14168 -1.15747C5.86034 -1.15747 6.49034 -1.29747 7.03168 -1.57747C7.57301 -1.8668 7.99301 -2.26347 8.29168 -2.76747C8.58101 -3.27147 8.72568 -3.84547 8.72568 -4.48947C8.72568 -5.07747 8.59968 -5.59547 8.34768 -6.04347C8.09568 -6.49147 7.71301 -6.84147 7.19968 -7.09347L7.19968 -9.01147C8.13301 -8.64747 8.85168 -8.05947 9.35568 -7.24747C9.85968 -6.4448 10.1117 -5.52547 10.1117 -4.48947C10.1117 -3.5748 9.90168 -2.73947 9.48168 -1.98347C9.05234 -1.22747 8.45968 -0.625465 7.70368 -0.177465C6.94768 0.261201 6.09368 0.480535 5.14168 0.480535ZM8.03968 -26.5456L8.03968 -22.4716L10.0277 -21.7716L10.0277 -20.1056L0.283675 -23.5916L0.283675 -25.4396L10.0277 -28.9256L10.0277 -27.2456L8.03968 -26.5456ZM6.73768 -26.0976L2.21568 -24.5156L6.73768 -22.9196L6.73768 -26.0976ZM10.0277 -48.2353L10.0277 -46.6393L2.76167 -41.8373L10.0277 -41.8373L10.0277 -40.2413L0.283674 -40.2413L0.283674 -41.8373L7.53567 -46.6393L0.283674 -46.6393L0.283674 -48.2353L10.0277 -48.2353ZM0.297672 -79.8539L1.59967 -79.8539L1.59967 -77.2639L10.0277 -77.2639L10.0277 -75.6679L1.59967 -75.6679L1.59967 -73.0639L0.297673 -73.0639L0.297672 -79.8539ZM1.58567 -92.8662L4.44167 -92.8662L4.44167 -96.2262L5.74367 -96.2262L5.74367 -92.8662L8.72567 -92.8662L8.72567 -96.6462L10.0277 -96.6462L10.0277 -91.2702L0.283672 -91.2702L0.283672 -96.6462L1.58567 -96.6462L1.58567 -92.8662ZM10.1257 -111.618C10.1257 -110.965 10.0137 -110.377 9.78967 -109.854C9.55634 -109.331 9.22967 -108.921 8.80967 -108.622C8.38967 -108.323 7.89967 -108.174 7.33967 -108.174L7.33967 -109.882C7.75967 -109.919 8.10501 -110.083 8.37567 -110.372C8.64634 -110.671 8.78167 -111.086 8.78167 -111.618C8.78167 -112.169 8.651 -112.598 8.38967 -112.906C8.119 -113.214 7.77367 -113.368 7.35367 -113.368C7.027 -113.368 6.761 -113.27 6.55567 -113.074C6.35034 -112.887 6.19167 -112.649 6.07967 -112.36C5.96767 -112.08 5.84634 -111.688 5.71567 -111.184C5.54767 -110.549 5.37967 -110.031 5.21167 -109.63C5.03434 -109.238 4.76367 -108.902 4.39967 -108.622C4.03567 -108.342 3.55034 -108.202 2.94367 -108.202C2.38367 -108.202 1.89367 -108.342 1.47367 -108.622C1.05367 -108.902 0.731672 -109.294 0.507672 -109.798C0.283671 -110.302 0.171671 -110.885 0.171671 -111.548C0.171671 -112.491 0.409671 -113.261 0.885671 -113.858C1.35234 -114.465 1.99634 -114.801 2.81767 -114.866L2.81767 -113.102C2.463 -113.074 2.15967 -112.906 1.90767 -112.598C1.65567 -112.29 1.52967 -111.884 1.52967 -111.38C1.52967 -110.923 1.64634 -110.549 1.87967 -110.26C2.113 -109.971 2.449 -109.826 2.88767 -109.826C3.18634 -109.826 3.43367 -109.915 3.62967 -110.092C3.81634 -110.279 3.96567 -110.512 4.07767 -110.792C4.18967 -111.072 4.311 -111.455 4.44167 -111.94C4.619 -112.584 4.79634 -113.107 4.97367 -113.508C5.151 -113.919 5.42634 -114.264 5.79967 -114.544C6.16367 -114.833 6.65367 -114.978 7.26967 -114.978C7.76434 -114.978 8.231 -114.843 8.66967 -114.572C9.10834 -114.311 9.463 -113.923 9.73367 -113.41C9.995 -112.906 10.1257 -112.309 10.1257 -111.618ZM0.29767 -132.947L1.59967 -132.947L1.59967 -130.357L10.0277 -130.357L10.0277 -128.761L1.59967 -128.761L1.59967 -126.157L0.29767 -126.157L0.29767 -132.947ZM0.297669 -145.96L10.0277 -145.96L10.0277 -144.364L0.29767 -144.364L0.297669 -145.96ZM0.297669 -163.581L1.59967 -163.581L1.59967 -159.451L4.46967 -159.451L4.46967 -162.671L5.77167 -162.671L5.77167 -159.451L10.0277 -159.451L10.0277 -157.855L0.297669 -157.855L0.297669 -163.581ZM0.297668 -182.07L6.49967 -178.85L10.0277 -178.85L10.0277 -177.254L6.49967 -177.254L0.297668 -174.02L0.297668 -175.798L5.07167 -178.052L0.297668 -180.306L0.297668 -182.07Z" fill="black"/>
</svg>
